<svg width="30" height="29" viewBox="0 0 30 29" fill="none" xmlns="http://www.w3.org/2000/svg">
<path d="M19.7407 29H19.5504C13.0524 29 9.92049 26.5292 9.37899 20.9947C9.32044 20.4158 9.7595 19.8934 10.3742 19.8369C10.9596 19.7804 11.5157 20.2181 11.5743 20.797C11.9987 25.2303 14.1647 26.8822 19.5651 26.8822H19.7553C25.7118 26.8822 27.8193 24.8491 27.8193 19.1027V9.89726C27.8193 4.15092 25.7118 2.11782 19.7553 2.11782H19.5651C14.1354 2.11782 11.9694 3.79795 11.5743 8.31596C11.5011 8.89483 10.9889 9.33251 10.3742 9.27604C9.7595 9.23368 9.32045 8.71129 9.36435 8.13242C9.86195 2.51314 13.0085 0 19.5504 0H19.7407C26.9266 0 30 2.96494 30 9.89726V19.1027C30 26.0351 26.9266 29 19.7407 29Z" fill="#F5FDFF"/>
<path d="M19.3874 15.5589H2.73265C2.13261 15.5589 1.63501 15.0789 1.63501 14.5C1.63501 13.9211 2.13261 13.4411 2.73265 13.4411H19.3874C19.9875 13.4411 20.4851 13.9211 20.4851 14.5C20.4851 15.0789 19.9875 15.5589 19.3874 15.5589Z" fill="#F5FDFF"/>
<path d="M5.99677 20.2889C5.7187 20.2889 5.44063 20.19 5.2211 19.9783L0.318315 15.2485C-0.106105 14.839 -0.106105 14.1613 0.318315 13.7519L5.2211 9.02206C5.64552 8.61262 6.34801 8.61262 6.77243 9.02206C7.19685 9.43151 7.19685 10.1092 6.77243 10.5187L2.64531 14.5002L6.77243 18.4817C7.19685 18.8911 7.19685 19.5688 6.77243 19.9783C6.56754 20.19 6.27483 20.2889 5.99677 20.2889Z" fill="#F5FDFF"/>
</svg>
